%TF.GenerationSoftware,KiCad,Pcbnew,(5.1.9)-1*%
%TF.CreationDate,2021-03-07T15:01:53-08:00*%
%TF.ProjectId,lightbar-pcb,6c696768-7462-4617-922d-7063622e6b69,rev?*%
%TF.SameCoordinates,Original*%
%TF.FileFunction,Legend,Top*%
%TF.FilePolarity,Positive*%
%FSLAX46Y46*%
G04 Gerber Fmt 4.6, Leading zero omitted, Abs format (unit mm)*
G04 Created by KiCad (PCBNEW (5.1.9)-1) date 2021-03-07 15:01:53*
%MOMM*%
%LPD*%
G01*
G04 APERTURE LIST*
%ADD10C,0.120000*%
%ADD11C,0.150000*%
G04 APERTURE END LIST*
D10*
%TO.C,SW6*%
X119650000Y-75780000D02*
X116570000Y-75780000D01*
X116570000Y-81700000D02*
X119650000Y-81700000D01*
%TO.C,SW5*%
X106950000Y-75780000D02*
X103870000Y-75780000D01*
X103870000Y-81700000D02*
X106950000Y-81700000D01*
%TO.C,SW4*%
X118380000Y-59270000D02*
X115300000Y-59270000D01*
X115300000Y-65190000D02*
X118380000Y-65190000D01*
%TO.C,SW3*%
X118380000Y-46570000D02*
X115300000Y-46570000D01*
X115300000Y-52490000D02*
X118380000Y-52490000D01*
%TO.C,SW2*%
X106950000Y-59270000D02*
X103870000Y-59270000D01*
X103870000Y-65190000D02*
X106950000Y-65190000D01*
%TO.C,SW1*%
X106950000Y-46570000D02*
X103870000Y-46570000D01*
X103870000Y-52490000D02*
X106950000Y-52490000D01*
%TO.C,J4*%
X84195000Y-50620000D02*
X84195000Y-41500000D01*
X84195000Y-41500000D02*
X85195000Y-40500000D01*
X85195000Y-40500000D02*
X96065000Y-40500000D01*
X96065000Y-40500000D02*
X97065000Y-41500000D01*
X97065000Y-41500000D02*
X97065000Y-50620000D01*
X84195000Y-50620000D02*
X86620000Y-50620000D01*
X97065000Y-50620000D02*
X94281767Y-50620000D01*
X88640000Y-50620000D02*
X89978233Y-50620000D01*
X91281767Y-50620000D02*
X92978233Y-50620000D01*
%TO.C,J1*%
X97415000Y-78920000D02*
X97415000Y-88040000D01*
X97415000Y-88040000D02*
X96415000Y-89040000D01*
X96415000Y-89040000D02*
X88545000Y-89040000D01*
X88545000Y-89040000D02*
X87545000Y-88040000D01*
X87545000Y-88040000D02*
X87545000Y-78920000D01*
X97415000Y-78920000D02*
X94990000Y-78920000D01*
X87545000Y-78920000D02*
X90328233Y-78920000D01*
X92970000Y-78920000D02*
X91631767Y-78920000D01*
%TO.C,J2*%
X82610000Y-82550000D02*
X79950000Y-82550000D01*
X82610000Y-82550000D02*
X82610000Y-49470000D01*
X82610000Y-49470000D02*
X79950000Y-49470000D01*
X79950000Y-82550000D02*
X79950000Y-49470000D01*
X79950000Y-85150000D02*
X79950000Y-83820000D01*
X81280000Y-85150000D02*
X79950000Y-85150000D01*
%TO.C,J3*%
X66040000Y-85150000D02*
X64710000Y-85150000D01*
X64710000Y-85150000D02*
X64710000Y-83820000D01*
X64710000Y-82550000D02*
X64710000Y-49470000D01*
X67370000Y-49470000D02*
X64710000Y-49470000D01*
X67370000Y-82550000D02*
X67370000Y-49470000D01*
X67370000Y-82550000D02*
X64710000Y-82550000D01*
%TO.C,SW6*%
D11*
X117486666Y-74604761D02*
X117629523Y-74652380D01*
X117867619Y-74652380D01*
X117962857Y-74604761D01*
X118010476Y-74557142D01*
X118058095Y-74461904D01*
X118058095Y-74366666D01*
X118010476Y-74271428D01*
X117962857Y-74223809D01*
X117867619Y-74176190D01*
X117677142Y-74128571D01*
X117581904Y-74080952D01*
X117534285Y-74033333D01*
X117486666Y-73938095D01*
X117486666Y-73842857D01*
X117534285Y-73747619D01*
X117581904Y-73700000D01*
X117677142Y-73652380D01*
X117915238Y-73652380D01*
X118058095Y-73700000D01*
X118391428Y-73652380D02*
X118629523Y-74652380D01*
X118820000Y-73938095D01*
X119010476Y-74652380D01*
X119248571Y-73652380D01*
X120058095Y-73652380D02*
X119867619Y-73652380D01*
X119772380Y-73700000D01*
X119724761Y-73747619D01*
X119629523Y-73890476D01*
X119581904Y-74080952D01*
X119581904Y-74461904D01*
X119629523Y-74557142D01*
X119677142Y-74604761D01*
X119772380Y-74652380D01*
X119962857Y-74652380D01*
X120058095Y-74604761D01*
X120105714Y-74557142D01*
X120153333Y-74461904D01*
X120153333Y-74223809D01*
X120105714Y-74128571D01*
X120058095Y-74080952D01*
X119962857Y-74033333D01*
X119772380Y-74033333D01*
X119677142Y-74080952D01*
X119629523Y-74128571D01*
X119581904Y-74223809D01*
%TO.C,SW5*%
X104786666Y-74604761D02*
X104929523Y-74652380D01*
X105167619Y-74652380D01*
X105262857Y-74604761D01*
X105310476Y-74557142D01*
X105358095Y-74461904D01*
X105358095Y-74366666D01*
X105310476Y-74271428D01*
X105262857Y-74223809D01*
X105167619Y-74176190D01*
X104977142Y-74128571D01*
X104881904Y-74080952D01*
X104834285Y-74033333D01*
X104786666Y-73938095D01*
X104786666Y-73842857D01*
X104834285Y-73747619D01*
X104881904Y-73700000D01*
X104977142Y-73652380D01*
X105215238Y-73652380D01*
X105358095Y-73700000D01*
X105691428Y-73652380D02*
X105929523Y-74652380D01*
X106120000Y-73938095D01*
X106310476Y-74652380D01*
X106548571Y-73652380D01*
X107405714Y-73652380D02*
X106929523Y-73652380D01*
X106881904Y-74128571D01*
X106929523Y-74080952D01*
X107024761Y-74033333D01*
X107262857Y-74033333D01*
X107358095Y-74080952D01*
X107405714Y-74128571D01*
X107453333Y-74223809D01*
X107453333Y-74461904D01*
X107405714Y-74557142D01*
X107358095Y-74604761D01*
X107262857Y-74652380D01*
X107024761Y-74652380D01*
X106929523Y-74604761D01*
X106881904Y-74557142D01*
%TO.C,SW4*%
X116216666Y-58094761D02*
X116359523Y-58142380D01*
X116597619Y-58142380D01*
X116692857Y-58094761D01*
X116740476Y-58047142D01*
X116788095Y-57951904D01*
X116788095Y-57856666D01*
X116740476Y-57761428D01*
X116692857Y-57713809D01*
X116597619Y-57666190D01*
X116407142Y-57618571D01*
X116311904Y-57570952D01*
X116264285Y-57523333D01*
X116216666Y-57428095D01*
X116216666Y-57332857D01*
X116264285Y-57237619D01*
X116311904Y-57190000D01*
X116407142Y-57142380D01*
X116645238Y-57142380D01*
X116788095Y-57190000D01*
X117121428Y-57142380D02*
X117359523Y-58142380D01*
X117550000Y-57428095D01*
X117740476Y-58142380D01*
X117978571Y-57142380D01*
X118788095Y-57475714D02*
X118788095Y-58142380D01*
X118550000Y-57094761D02*
X118311904Y-57809047D01*
X118930952Y-57809047D01*
%TO.C,SW3*%
X116216666Y-45394761D02*
X116359523Y-45442380D01*
X116597619Y-45442380D01*
X116692857Y-45394761D01*
X116740476Y-45347142D01*
X116788095Y-45251904D01*
X116788095Y-45156666D01*
X116740476Y-45061428D01*
X116692857Y-45013809D01*
X116597619Y-44966190D01*
X116407142Y-44918571D01*
X116311904Y-44870952D01*
X116264285Y-44823333D01*
X116216666Y-44728095D01*
X116216666Y-44632857D01*
X116264285Y-44537619D01*
X116311904Y-44490000D01*
X116407142Y-44442380D01*
X116645238Y-44442380D01*
X116788095Y-44490000D01*
X117121428Y-44442380D02*
X117359523Y-45442380D01*
X117550000Y-44728095D01*
X117740476Y-45442380D01*
X117978571Y-44442380D01*
X118264285Y-44442380D02*
X118883333Y-44442380D01*
X118550000Y-44823333D01*
X118692857Y-44823333D01*
X118788095Y-44870952D01*
X118835714Y-44918571D01*
X118883333Y-45013809D01*
X118883333Y-45251904D01*
X118835714Y-45347142D01*
X118788095Y-45394761D01*
X118692857Y-45442380D01*
X118407142Y-45442380D01*
X118311904Y-45394761D01*
X118264285Y-45347142D01*
%TO.C,SW2*%
X104786666Y-58094761D02*
X104929523Y-58142380D01*
X105167619Y-58142380D01*
X105262857Y-58094761D01*
X105310476Y-58047142D01*
X105358095Y-57951904D01*
X105358095Y-57856666D01*
X105310476Y-57761428D01*
X105262857Y-57713809D01*
X105167619Y-57666190D01*
X104977142Y-57618571D01*
X104881904Y-57570952D01*
X104834285Y-57523333D01*
X104786666Y-57428095D01*
X104786666Y-57332857D01*
X104834285Y-57237619D01*
X104881904Y-57190000D01*
X104977142Y-57142380D01*
X105215238Y-57142380D01*
X105358095Y-57190000D01*
X105691428Y-57142380D02*
X105929523Y-58142380D01*
X106120000Y-57428095D01*
X106310476Y-58142380D01*
X106548571Y-57142380D01*
X106881904Y-57237619D02*
X106929523Y-57190000D01*
X107024761Y-57142380D01*
X107262857Y-57142380D01*
X107358095Y-57190000D01*
X107405714Y-57237619D01*
X107453333Y-57332857D01*
X107453333Y-57428095D01*
X107405714Y-57570952D01*
X106834285Y-58142380D01*
X107453333Y-58142380D01*
%TO.C,SW1*%
X104786666Y-45394761D02*
X104929523Y-45442380D01*
X105167619Y-45442380D01*
X105262857Y-45394761D01*
X105310476Y-45347142D01*
X105358095Y-45251904D01*
X105358095Y-45156666D01*
X105310476Y-45061428D01*
X105262857Y-45013809D01*
X105167619Y-44966190D01*
X104977142Y-44918571D01*
X104881904Y-44870952D01*
X104834285Y-44823333D01*
X104786666Y-44728095D01*
X104786666Y-44632857D01*
X104834285Y-44537619D01*
X104881904Y-44490000D01*
X104977142Y-44442380D01*
X105215238Y-44442380D01*
X105358095Y-44490000D01*
X105691428Y-44442380D02*
X105929523Y-45442380D01*
X106120000Y-44728095D01*
X106310476Y-45442380D01*
X106548571Y-44442380D01*
X107453333Y-45442380D02*
X106881904Y-45442380D01*
X107167619Y-45442380D02*
X107167619Y-44442380D01*
X107072380Y-44585238D01*
X106977142Y-44680476D01*
X106881904Y-44728095D01*
%TO.C,J4*%
X95551666Y-51522380D02*
X95551666Y-52236666D01*
X95504047Y-52379523D01*
X95408809Y-52474761D01*
X95265952Y-52522380D01*
X95170714Y-52522380D01*
X96456428Y-51855714D02*
X96456428Y-52522380D01*
X96218333Y-51474761D02*
X95980238Y-52189047D01*
X96599285Y-52189047D01*
%TO.C,J1*%
X96186666Y-76922380D02*
X96186666Y-77636666D01*
X96139047Y-77779523D01*
X96043809Y-77874761D01*
X95900952Y-77922380D01*
X95805714Y-77922380D01*
X97186666Y-77922380D02*
X96615238Y-77922380D01*
X96900952Y-77922380D02*
X96900952Y-76922380D01*
X96805714Y-77065238D01*
X96710476Y-77160476D01*
X96615238Y-77208095D01*
%TO.C,J2*%
X80946666Y-86042380D02*
X80946666Y-86756666D01*
X80899047Y-86899523D01*
X80803809Y-86994761D01*
X80660952Y-87042380D01*
X80565714Y-87042380D01*
X81375238Y-86137619D02*
X81422857Y-86090000D01*
X81518095Y-86042380D01*
X81756190Y-86042380D01*
X81851428Y-86090000D01*
X81899047Y-86137619D01*
X81946666Y-86232857D01*
X81946666Y-86328095D01*
X81899047Y-86470952D01*
X81327619Y-87042380D01*
X81946666Y-87042380D01*
%TO.C,J3*%
X65706666Y-86042380D02*
X65706666Y-86756666D01*
X65659047Y-86899523D01*
X65563809Y-86994761D01*
X65420952Y-87042380D01*
X65325714Y-87042380D01*
X66087619Y-86042380D02*
X66706666Y-86042380D01*
X66373333Y-86423333D01*
X66516190Y-86423333D01*
X66611428Y-86470952D01*
X66659047Y-86518571D01*
X66706666Y-86613809D01*
X66706666Y-86851904D01*
X66659047Y-86947142D01*
X66611428Y-86994761D01*
X66516190Y-87042380D01*
X66230476Y-87042380D01*
X66135238Y-86994761D01*
X66087619Y-86947142D01*
%TD*%
M02*
