M48
; DRILL file {KiCad (5.1.9)-1} date 03/07/21 15:02:39
; FORMAT={-:-/ absolute / inch / decimal}
; #@! TF.CreationDate,2021-03-07T15:02:39-08:00
; #@! TF.GenerationSoftware,Kicad,Pcbnew,(5.1.9)-1
FMAT,2
INCH
T1C0.0394
T2C0.0402
T3C0.0433
T4C0.0866
T5C0.1181
%
G90
G05
T1
X2.6Y-2.0
X2.6Y-2.1
X2.6Y-2.2
X2.6Y-2.3
X2.6Y-2.4
X2.6Y-2.5
X2.6Y-2.6
X2.6Y-2.7
X2.6Y-2.8
X2.6Y-2.9
X2.6Y-3.0
X2.6Y-3.1
X2.6Y-3.2
X2.6Y-3.3
X3.2Y-2.0
X3.2Y-2.1
X3.2Y-2.2
X3.2Y-2.3
X3.2Y-2.4
X3.2Y-2.5
X3.2Y-2.6
X3.2Y-2.7
X3.2Y-2.8
X3.2Y-2.9
X3.2Y-3.0
X3.2Y-3.1
X3.2Y-3.2
X3.2Y-3.3
T2
X3.45Y-1.95
X3.5681Y-1.95
X3.5819Y-3.15
X3.6862Y-1.95
X3.7Y-3.15
T3
X4.05Y-1.95
X4.05Y-2.45
X4.05Y-3.1
X4.25Y-1.95
X4.25Y-2.45
X4.25Y-3.1
X4.5Y-1.95
X4.5Y-2.45
X4.55Y-3.1
X4.7Y-1.95
X4.7Y-2.45
X4.75Y-3.1
T4
X2.6Y-1.7
X4.75Y-1.7
X4.75Y-3.4
T5
X3.5681Y-1.7799
X3.6409Y-3.3201
T0
M30
